<mxfile host="Electron" modified="2023-07-11T12:12:25.580Z" agent="Mozilla/5.0 (Windows NT 10.0; Win64; x64) AppleWebKit/537.36 (KHTML, like Gecko) draw.io/21.6.1 Chrome/112.0.5615.204 Electron/24.6.1 Safari/537.36" etag="UvE7AqTlkBJTHn0ZTSOM" version="21.6.1" type="device">
  <diagram name="Page-1" id="03018318-947c-dd8e-b7a3-06fadd420f32">
    <mxGraphModel dx="792" dy="1195" grid="1" gridSize="10" guides="1" tooltips="1" connect="1" arrows="1" fold="1" page="1" pageScale="1" pageWidth="1100" pageHeight="850" background="none" math="0" shadow="0">
      <root>
        <mxCell id="0" />
        <mxCell id="1" parent="0" />
        <mxCell id="677b7b8949515195-1" value="" style="whiteSpace=wrap;html=1;rounded=0;shadow=0;labelBackgroundColor=none;strokeColor=#000000;strokeWidth=1;fillColor=none;fontFamily=Verdana;fontSize=12;fontColor=#000000;align=center;comic=1;" parent="1" vertex="1">
          <mxGeometry x="300" y="20" width="500" height="810" as="geometry" />
        </mxCell>
        <mxCell id="677b7b8949515195-2" value="TRACK-IT Logo" style="whiteSpace=wrap;html=1;rounded=0;shadow=0;labelBackgroundColor=none;strokeWidth=1;fontFamily=Verdana;fontSize=28;align=center;comic=1;" parent="1" vertex="1">
          <mxGeometry x="320" y="35" width="460" height="90" as="geometry" />
        </mxCell>
        <mxCell id="677b7b8949515195-9" value="" style="line;strokeWidth=1;html=1;rounded=0;shadow=0;labelBackgroundColor=none;fillColor=none;fontFamily=Verdana;fontSize=14;fontColor=#000000;align=center;comic=1;" parent="1" vertex="1">
          <mxGeometry x="300" y="135" width="500" height="10" as="geometry" />
        </mxCell>
        <mxCell id="677b7b8949515195-10" value="" style="whiteSpace=wrap;html=1;rounded=0;shadow=0;labelBackgroundColor=none;strokeWidth=1;fillColor=none;fontFamily=Verdana;fontSize=12;align=center;comic=1;" parent="1" vertex="1">
          <mxGeometry x="310" y="155" width="480" height="50" as="geometry" />
        </mxCell>
        <mxCell id="677b7b8949515195-25" value="" style="whiteSpace=wrap;html=1;rounded=0;shadow=0;labelBackgroundColor=none;strokeWidth=1;fillColor=none;fontFamily=Verdana;fontSize=12;align=center;comic=1;" parent="1" vertex="1">
          <mxGeometry x="310" y="225" width="480" height="590" as="geometry" />
        </mxCell>
        <mxCell id="6X27XeiCugofJ0FdR2cb-1" value="Home" style="whiteSpace=wrap;html=1;rounded=0;shadow=0;labelBackgroundColor=none;strokeWidth=1;fillColor=none;fontFamily=Verdana;fontSize=12;align=center;comic=1;" parent="1" vertex="1">
          <mxGeometry x="320" y="165" width="80" height="30" as="geometry" />
        </mxCell>
        <mxCell id="6X27XeiCugofJ0FdR2cb-3" value="Configuration" style="whiteSpace=wrap;html=1;rounded=0;shadow=0;labelBackgroundColor=none;strokeWidth=1;fillColor=none;fontFamily=Verdana;fontSize=12;align=center;comic=1;" parent="1" vertex="1">
          <mxGeometry x="410" y="165" width="100" height="30" as="geometry" />
        </mxCell>
        <mxCell id="6X27XeiCugofJ0FdR2cb-5" value="Game Mode" style="whiteSpace=wrap;html=1;rounded=0;shadow=0;labelBackgroundColor=none;strokeWidth=1;fillColor=none;fontFamily=Verdana;fontSize=12;align=center;comic=1;" parent="1" vertex="1">
          <mxGeometry x="520" y="165" width="100" height="30" as="geometry" />
        </mxCell>
        <mxCell id="6X27XeiCugofJ0FdR2cb-6" value="Start" style="whiteSpace=wrap;html=1;rounded=0;shadow=0;labelBackgroundColor=none;strokeWidth=1;fillColor=none;fontFamily=Verdana;fontSize=12;align=center;comic=1;" parent="1" vertex="1">
          <mxGeometry x="700" y="165" width="80" height="30" as="geometry" />
        </mxCell>
        <mxCell id="6X27XeiCugofJ0FdR2cb-11" value="" style="endArrow=none;html=1;rounded=0;exitX=0.44;exitY=0.967;exitDx=0;exitDy=0;exitPerimeter=0;" parent="1" source="6X27XeiCugofJ0FdR2cb-5" target="677b7b8949515195-25" edge="1">
          <mxGeometry width="50" height="50" relative="1" as="geometry">
            <mxPoint x="550" y="460" as="sourcePoint" />
            <mxPoint x="440" y="270" as="targetPoint" />
            <Array as="points">
              <mxPoint x="570" y="220" />
            </Array>
          </mxGeometry>
        </mxCell>
        <mxCell id="4UDEAUrDCL4G5vx5dv1s-1" value="Choose Game Properties" style="text;html=1;strokeColor=none;fillColor=none;align=center;verticalAlign=middle;whiteSpace=wrap;rounded=0;" parent="1" vertex="1">
          <mxGeometry x="490" y="250" width="120" height="30" as="geometry" />
        </mxCell>
        <mxCell id="4UDEAUrDCL4G5vx5dv1s-3" value="Write Your Own Sequence" style="whiteSpace=wrap;html=1;rounded=0;shadow=0;labelBackgroundColor=none;strokeWidth=1;fillColor=none;fontFamily=Verdana;fontSize=12;align=center;comic=1;" parent="1" vertex="1">
          <mxGeometry x="360" y="490" width="200" height="30" as="geometry" />
        </mxCell>
        <mxCell id="4UDEAUrDCL4G5vx5dv1s-4" value="X" style="whiteSpace=wrap;html=1;rounded=0;shadow=0;labelBackgroundColor=none;strokeWidth=1;fillColor=none;fontFamily=Verdana;fontSize=12;align=center;comic=1;" parent="1" vertex="1">
          <mxGeometry x="640" y="490" width="30" height="30" as="geometry" />
        </mxCell>
        <mxCell id="4UDEAUrDCL4G5vx5dv1s-5" value="Return To Baseline" style="whiteSpace=wrap;html=1;rounded=0;shadow=0;labelBackgroundColor=none;strokeWidth=1;fillColor=none;fontFamily=Verdana;fontSize=12;align=center;comic=1;" parent="1" vertex="1">
          <mxGeometry x="360" y="290" width="200" height="30" as="geometry" />
        </mxCell>
        <mxCell id="4UDEAUrDCL4G5vx5dv1s-6" value="X" style="whiteSpace=wrap;html=1;rounded=0;shadow=0;labelBackgroundColor=none;strokeWidth=1;fillColor=none;fontFamily=Verdana;fontSize=12;align=center;comic=1;" parent="1" vertex="1">
          <mxGeometry x="640" y="290" width="30" height="30" as="geometry" />
        </mxCell>
        <mxCell id="4UDEAUrDCL4G5vx5dv1s-7" value="Random Target position" style="whiteSpace=wrap;html=1;rounded=0;shadow=0;labelBackgroundColor=none;strokeWidth=1;fillColor=none;fontFamily=Verdana;fontSize=12;align=center;comic=1;" parent="1" vertex="1">
          <mxGeometry x="360" y="330" width="200" height="30" as="geometry" />
        </mxCell>
        <mxCell id="4UDEAUrDCL4G5vx5dv1s-8" value="X" style="whiteSpace=wrap;html=1;rounded=0;shadow=0;labelBackgroundColor=none;strokeWidth=1;fillColor=none;fontFamily=Verdana;fontSize=12;align=center;comic=1;" parent="1" vertex="1">
          <mxGeometry x="640" y="330" width="30" height="30" as="geometry" />
        </mxCell>
        <mxCell id="4UDEAUrDCL4G5vx5dv1s-10" value="Random Target Width" style="whiteSpace=wrap;html=1;rounded=0;shadow=0;labelBackgroundColor=none;strokeWidth=1;fillColor=none;fontFamily=Verdana;fontSize=12;align=center;comic=1;" parent="1" vertex="1">
          <mxGeometry x="360" y="450" width="200" height="30" as="geometry" />
        </mxCell>
        <mxCell id="4UDEAUrDCL4G5vx5dv1s-11" value="X" style="whiteSpace=wrap;html=1;rounded=0;shadow=0;labelBackgroundColor=none;strokeWidth=1;fillColor=none;fontFamily=Verdana;fontSize=12;align=center;comic=1;" parent="1" vertex="1">
          <mxGeometry x="640" y="450" width="30" height="30" as="geometry" />
        </mxCell>
        <mxCell id="4UDEAUrDCL4G5vx5dv1s-12" value="Adaptive Difficulty - adaptive target closeness and width" style="whiteSpace=wrap;html=1;rounded=0;shadow=0;labelBackgroundColor=none;strokeWidth=1;fillColor=none;fontFamily=Verdana;fontSize=12;align=center;comic=1;" parent="1" vertex="1">
          <mxGeometry x="360" y="370" width="200" height="30" as="geometry" />
        </mxCell>
        <mxCell id="4UDEAUrDCL4G5vx5dv1s-13" value="X" style="whiteSpace=wrap;html=1;rounded=0;shadow=0;labelBackgroundColor=none;strokeWidth=1;fillColor=none;fontFamily=Verdana;fontSize=12;align=center;comic=1;" parent="1" vertex="1">
          <mxGeometry x="640" y="370" width="30" height="30" as="geometry" />
        </mxCell>
        <mxCell id="4UDEAUrDCL4G5vx5dv1s-14" value="Training mode&amp;nbsp;" style="whiteSpace=wrap;html=1;rounded=0;shadow=0;labelBackgroundColor=none;strokeWidth=1;fillColor=none;fontFamily=Verdana;fontSize=12;align=center;comic=1;" parent="1" vertex="1">
          <mxGeometry x="360" y="530" width="200" height="30" as="geometry" />
        </mxCell>
        <mxCell id="4UDEAUrDCL4G5vx5dv1s-15" value="X" style="whiteSpace=wrap;html=1;rounded=0;shadow=0;labelBackgroundColor=none;strokeWidth=1;fillColor=none;fontFamily=Verdana;fontSize=12;align=center;comic=1;" parent="1" vertex="1">
          <mxGeometry x="640" y="530" width="30" height="30" as="geometry" />
        </mxCell>
        <mxCell id="4UDEAUrDCL4G5vx5dv1s-16" value="SVIPT - show all targets&amp;nbsp;" style="whiteSpace=wrap;html=1;rounded=0;shadow=0;labelBackgroundColor=none;strokeWidth=1;fillColor=none;fontFamily=Verdana;fontSize=12;align=center;comic=1;" parent="1" vertex="1">
          <mxGeometry x="360" y="570" width="200" height="30" as="geometry" />
        </mxCell>
        <mxCell id="4UDEAUrDCL4G5vx5dv1s-17" value="X" style="whiteSpace=wrap;html=1;rounded=0;shadow=0;labelBackgroundColor=none;strokeWidth=1;fillColor=none;fontFamily=Verdana;fontSize=12;align=center;comic=1;" parent="1" vertex="1">
          <mxGeometry x="640" y="570" width="30" height="30" as="geometry" />
        </mxCell>
        <mxCell id="4UDEAUrDCL4G5vx5dv1s-23" value="Target Sustain on Screen" style="whiteSpace=wrap;html=1;rounded=0;shadow=0;labelBackgroundColor=none;strokeWidth=1;fillColor=none;fontFamily=Verdana;fontSize=12;align=center;comic=1;" parent="1" vertex="1">
          <mxGeometry x="360" y="610" width="200" height="30" as="geometry" />
        </mxCell>
        <mxCell id="4UDEAUrDCL4G5vx5dv1s-24" value="X" style="whiteSpace=wrap;html=1;rounded=0;shadow=0;labelBackgroundColor=none;strokeWidth=1;fillColor=none;fontFamily=Verdana;fontSize=12;align=center;comic=1;" parent="1" vertex="1">
          <mxGeometry x="640" y="610" width="30" height="30" as="geometry" />
        </mxCell>
        <mxCell id="4UDEAUrDCL4G5vx5dv1s-25" value="Show a certain amount of targets at a time" style="whiteSpace=wrap;html=1;rounded=0;shadow=0;labelBackgroundColor=none;strokeWidth=1;fillColor=none;fontFamily=Verdana;fontSize=12;align=center;comic=1;" parent="1" vertex="1">
          <mxGeometry x="360" y="650" width="200" height="30" as="geometry" />
        </mxCell>
        <mxCell id="4UDEAUrDCL4G5vx5dv1s-26" value="X" style="whiteSpace=wrap;html=1;rounded=0;shadow=0;labelBackgroundColor=none;strokeWidth=1;fillColor=none;fontFamily=Verdana;fontSize=12;align=center;comic=1;" parent="1" vertex="1">
          <mxGeometry x="640" y="650" width="30" height="30" as="geometry" />
        </mxCell>
        <mxCell id="4UDEAUrDCL4G5vx5dv1s-27" value="Extrinsic motivation&amp;nbsp;" style="whiteSpace=wrap;html=1;rounded=0;shadow=0;labelBackgroundColor=none;strokeWidth=1;fillColor=none;fontFamily=Verdana;fontSize=12;align=center;comic=1;" parent="1" vertex="1">
          <mxGeometry x="360" y="690" width="200" height="30" as="geometry" />
        </mxCell>
        <mxCell id="4UDEAUrDCL4G5vx5dv1s-28" value="X" style="whiteSpace=wrap;html=1;rounded=0;shadow=0;labelBackgroundColor=none;strokeWidth=1;fillColor=none;fontFamily=Verdana;fontSize=12;align=center;comic=1;" parent="1" vertex="1">
          <mxGeometry x="640" y="690" width="30" height="30" as="geometry" />
        </mxCell>
        <mxCell id="4UDEAUrDCL4G5vx5dv1s-29" value="In game guidelines" style="whiteSpace=wrap;html=1;rounded=0;shadow=0;labelBackgroundColor=none;strokeWidth=1;fillColor=none;fontFamily=Verdana;fontSize=12;align=center;comic=1;" parent="1" vertex="1">
          <mxGeometry x="360" y="410" width="200" height="30" as="geometry" />
        </mxCell>
        <mxCell id="4UDEAUrDCL4G5vx5dv1s-30" value="X" style="whiteSpace=wrap;html=1;rounded=0;shadow=0;labelBackgroundColor=none;strokeWidth=1;fillColor=none;fontFamily=Verdana;fontSize=12;align=center;comic=1;" parent="1" vertex="1">
          <mxGeometry x="640" y="410" width="30" height="30" as="geometry" />
        </mxCell>
        <mxCell id="4UDEAUrDCL4G5vx5dv1s-31" value="Configure" style="whiteSpace=wrap;html=1;rounded=0;shadow=0;labelBackgroundColor=none;strokeWidth=1;fillColor=none;fontFamily=Verdana;fontSize=12;align=center;comic=1;" parent="1" vertex="1">
          <mxGeometry x="700" y="330" width="70" height="30" as="geometry" />
        </mxCell>
        <mxCell id="4UDEAUrDCL4G5vx5dv1s-32" value="Configure" style="whiteSpace=wrap;html=1;rounded=0;shadow=0;labelBackgroundColor=none;strokeWidth=1;fillColor=none;fontFamily=Verdana;fontSize=12;align=center;comic=1;" parent="1" vertex="1">
          <mxGeometry x="700" y="370" width="70" height="30" as="geometry" />
        </mxCell>
        <mxCell id="4UDEAUrDCL4G5vx5dv1s-33" value="Configure" style="whiteSpace=wrap;html=1;rounded=0;shadow=0;labelBackgroundColor=none;strokeWidth=1;fillColor=none;fontFamily=Verdana;fontSize=12;align=center;comic=1;" parent="1" vertex="1">
          <mxGeometry x="700" y="530" width="70" height="30" as="geometry" />
        </mxCell>
        <mxCell id="4UDEAUrDCL4G5vx5dv1s-34" value="Configure" style="whiteSpace=wrap;html=1;rounded=0;shadow=0;labelBackgroundColor=none;strokeWidth=1;fillColor=none;fontFamily=Verdana;fontSize=12;align=center;comic=1;" parent="1" vertex="1">
          <mxGeometry x="700" y="610" width="70" height="30" as="geometry" />
        </mxCell>
        <mxCell id="4UDEAUrDCL4G5vx5dv1s-35" value="Configure" style="whiteSpace=wrap;html=1;rounded=0;shadow=0;labelBackgroundColor=none;strokeWidth=1;fillColor=none;fontFamily=Verdana;fontSize=12;align=center;comic=1;" parent="1" vertex="1">
          <mxGeometry x="700" y="650" width="70" height="30" as="geometry" />
        </mxCell>
        <mxCell id="4UDEAUrDCL4G5vx5dv1s-36" value="Configure" style="whiteSpace=wrap;html=1;rounded=0;shadow=0;labelBackgroundColor=none;strokeWidth=1;fillColor=none;fontFamily=Verdana;fontSize=12;align=center;comic=1;" parent="1" vertex="1">
          <mxGeometry x="700" y="690" width="70" height="30" as="geometry" />
        </mxCell>
        <mxCell id="4UDEAUrDCL4G5vx5dv1s-38" value="" style="endArrow=none;html=1;rounded=0;" parent="1" edge="1">
          <mxGeometry width="50" height="50" relative="1" as="geometry">
            <mxPoint x="770" y="330" as="sourcePoint" />
            <mxPoint x="850" y="270" as="targetPoint" />
          </mxGeometry>
        </mxCell>
        <mxCell id="4UDEAUrDCL4G5vx5dv1s-39" value="" style="whiteSpace=wrap;html=1;rounded=0;shadow=0;labelBackgroundColor=none;strokeWidth=1;fillColor=none;fontFamily=Verdana;fontSize=12;align=center;comic=1;" parent="1" vertex="1">
          <mxGeometry x="850" y="230" width="240" height="100" as="geometry" />
        </mxCell>
        <mxCell id="4UDEAUrDCL4G5vx5dv1s-40" value="min closeness in px" style="text;html=1;strokeColor=none;fillColor=none;align=center;verticalAlign=middle;whiteSpace=wrap;rounded=0;" parent="1" vertex="1">
          <mxGeometry x="860" y="250" width="110" height="30" as="geometry" />
        </mxCell>
        <mxCell id="4UDEAUrDCL4G5vx5dv1s-41" value="max closeness in px" style="text;html=1;strokeColor=none;fillColor=none;align=center;verticalAlign=middle;whiteSpace=wrap;rounded=0;" parent="1" vertex="1">
          <mxGeometry x="855" y="290" width="120" height="30" as="geometry" />
        </mxCell>
        <mxCell id="4UDEAUrDCL4G5vx5dv1s-42" value="20" style="whiteSpace=wrap;html=1;rounded=0;shadow=0;labelBackgroundColor=none;strokeWidth=1;fillColor=none;fontFamily=Verdana;fontSize=12;align=center;comic=1;" parent="1" vertex="1">
          <mxGeometry x="1000" y="250" width="70" height="30" as="geometry" />
        </mxCell>
        <mxCell id="4UDEAUrDCL4G5vx5dv1s-43" value="500" style="whiteSpace=wrap;html=1;rounded=0;shadow=0;labelBackgroundColor=none;strokeWidth=1;fillColor=none;fontFamily=Verdana;fontSize=12;align=center;comic=1;" parent="1" vertex="1">
          <mxGeometry x="1000" y="290" width="70" height="30" as="geometry" />
        </mxCell>
        <mxCell id="4UDEAUrDCL4G5vx5dv1s-44" value="" style="whiteSpace=wrap;html=1;rounded=0;shadow=0;labelBackgroundColor=none;strokeWidth=1;fillColor=none;fontFamily=Verdana;fontSize=12;align=center;comic=1;" parent="1" vertex="1">
          <mxGeometry x="850" y="340" width="240" height="70" as="geometry" />
        </mxCell>
        <mxCell id="4UDEAUrDCL4G5vx5dv1s-45" value="% score threshold to increase level" style="text;html=1;strokeColor=none;fillColor=none;align=center;verticalAlign=middle;whiteSpace=wrap;rounded=0;" parent="1" vertex="1">
          <mxGeometry x="860" y="360" width="110" height="30" as="geometry" />
        </mxCell>
        <mxCell id="4UDEAUrDCL4G5vx5dv1s-47" value="75%" style="whiteSpace=wrap;html=1;rounded=0;shadow=0;labelBackgroundColor=none;strokeWidth=1;fillColor=none;fontFamily=Verdana;fontSize=12;align=center;comic=1;" parent="1" vertex="1">
          <mxGeometry x="1000" y="360" width="70" height="30" as="geometry" />
        </mxCell>
        <mxCell id="4UDEAUrDCL4G5vx5dv1s-49" value="" style="endArrow=none;html=1;rounded=0;exitX=1;exitY=0.5;exitDx=0;exitDy=0;entryX=0.001;entryY=0.378;entryDx=0;entryDy=0;entryPerimeter=0;" parent="1" source="4UDEAUrDCL4G5vx5dv1s-32" target="4UDEAUrDCL4G5vx5dv1s-44" edge="1">
          <mxGeometry width="50" height="50" relative="1" as="geometry">
            <mxPoint x="780" y="340" as="sourcePoint" />
            <mxPoint x="860" y="280" as="targetPoint" />
          </mxGeometry>
        </mxCell>
        <mxCell id="4UDEAUrDCL4G5vx5dv1s-51" value="" style="whiteSpace=wrap;html=1;rounded=0;shadow=0;labelBackgroundColor=none;strokeWidth=1;fillColor=none;fontFamily=Verdana;fontSize=12;align=center;comic=1;" parent="1" vertex="1">
          <mxGeometry x="850" y="500" width="240" height="70" as="geometry" />
        </mxCell>
        <mxCell id="4UDEAUrDCL4G5vx5dv1s-52" value="% accuracy to beat training mode" style="text;html=1;strokeColor=none;fillColor=none;align=center;verticalAlign=middle;whiteSpace=wrap;rounded=0;" parent="1" vertex="1">
          <mxGeometry x="860" y="520" width="110" height="30" as="geometry" />
        </mxCell>
        <mxCell id="4UDEAUrDCL4G5vx5dv1s-53" value="" style="endArrow=none;html=1;rounded=0;exitX=1;exitY=0.5;exitDx=0;exitDy=0;entryX=0.001;entryY=0.378;entryDx=0;entryDy=0;entryPerimeter=0;" parent="1" target="4UDEAUrDCL4G5vx5dv1s-51" edge="1">
          <mxGeometry width="50" height="50" relative="1" as="geometry">
            <mxPoint x="770" y="545" as="sourcePoint" />
            <mxPoint x="860" y="440" as="targetPoint" />
          </mxGeometry>
        </mxCell>
        <mxCell id="4UDEAUrDCL4G5vx5dv1s-56" value="75%" style="whiteSpace=wrap;html=1;rounded=0;shadow=0;labelBackgroundColor=none;strokeWidth=1;fillColor=none;fontFamily=Verdana;fontSize=12;align=center;comic=1;" parent="1" vertex="1">
          <mxGeometry x="1000" y="520" width="70" height="30" as="geometry" />
        </mxCell>
        <mxCell id="4UDEAUrDCL4G5vx5dv1s-57" value="" style="whiteSpace=wrap;html=1;rounded=0;shadow=0;labelBackgroundColor=none;strokeWidth=1;fillColor=none;fontFamily=Verdana;fontSize=12;align=center;comic=1;" parent="1" vertex="1">
          <mxGeometry x="850" y="580" width="240" height="70" as="geometry" />
        </mxCell>
        <mxCell id="4UDEAUrDCL4G5vx5dv1s-58" value="time on target in ms" style="text;html=1;strokeColor=none;fillColor=none;align=center;verticalAlign=middle;whiteSpace=wrap;rounded=0;" parent="1" vertex="1">
          <mxGeometry x="860" y="600" width="110" height="30" as="geometry" />
        </mxCell>
        <mxCell id="4UDEAUrDCL4G5vx5dv1s-59" value="" style="endArrow=none;html=1;rounded=0;exitX=1;exitY=0.5;exitDx=0;exitDy=0;entryX=0.001;entryY=0.378;entryDx=0;entryDy=0;entryPerimeter=0;" parent="1" target="4UDEAUrDCL4G5vx5dv1s-57" edge="1">
          <mxGeometry width="50" height="50" relative="1" as="geometry">
            <mxPoint x="770" y="625" as="sourcePoint" />
            <mxPoint x="860" y="520" as="targetPoint" />
          </mxGeometry>
        </mxCell>
        <mxCell id="4UDEAUrDCL4G5vx5dv1s-61" value="3.5" style="whiteSpace=wrap;html=1;rounded=0;shadow=0;labelBackgroundColor=none;strokeWidth=1;fillColor=none;fontFamily=Verdana;fontSize=12;align=center;comic=1;" parent="1" vertex="1">
          <mxGeometry x="1000" y="600" width="70" height="30" as="geometry" />
        </mxCell>
        <mxCell id="4UDEAUrDCL4G5vx5dv1s-62" value="" style="whiteSpace=wrap;html=1;rounded=0;shadow=0;labelBackgroundColor=none;strokeWidth=1;fillColor=none;fontFamily=Verdana;fontSize=12;align=center;comic=1;" parent="1" vertex="1">
          <mxGeometry x="850" y="650" width="240" height="70" as="geometry" />
        </mxCell>
        <mxCell id="4UDEAUrDCL4G5vx5dv1s-63" value="Amount of targets on screen" style="text;html=1;strokeColor=none;fillColor=none;align=center;verticalAlign=middle;whiteSpace=wrap;rounded=0;" parent="1" vertex="1">
          <mxGeometry x="860" y="670" width="110" height="30" as="geometry" />
        </mxCell>
        <mxCell id="4UDEAUrDCL4G5vx5dv1s-64" value="" style="endArrow=none;html=1;rounded=0;exitX=1;exitY=0.5;exitDx=0;exitDy=0;entryX=0.001;entryY=0.378;entryDx=0;entryDy=0;entryPerimeter=0;" parent="1" source="4UDEAUrDCL4G5vx5dv1s-35" target="4UDEAUrDCL4G5vx5dv1s-62" edge="1">
          <mxGeometry width="50" height="50" relative="1" as="geometry">
            <mxPoint x="770" y="695" as="sourcePoint" />
            <mxPoint x="860" y="590" as="targetPoint" />
          </mxGeometry>
        </mxCell>
        <mxCell id="4UDEAUrDCL4G5vx5dv1s-66" value="4" style="whiteSpace=wrap;html=1;rounded=0;shadow=0;labelBackgroundColor=none;strokeWidth=1;fillColor=none;fontFamily=Verdana;fontSize=12;align=center;comic=1;" parent="1" vertex="1">
          <mxGeometry x="1000" y="670" width="70" height="30" as="geometry" />
        </mxCell>
        <mxCell id="4UDEAUrDCL4G5vx5dv1s-67" value="" style="whiteSpace=wrap;html=1;rounded=0;shadow=0;labelBackgroundColor=none;strokeWidth=1;fillColor=none;fontFamily=Verdana;fontSize=12;align=center;comic=1;" parent="1" vertex="1">
          <mxGeometry x="850" y="720" width="240" height="180" as="geometry" />
        </mxCell>
        <mxCell id="4UDEAUrDCL4G5vx5dv1s-68" value="Levels" style="text;html=1;strokeColor=none;fillColor=none;align=center;verticalAlign=middle;whiteSpace=wrap;rounded=0;" parent="1" vertex="1">
          <mxGeometry x="860" y="740" width="110" height="30" as="geometry" />
        </mxCell>
        <mxCell id="4UDEAUrDCL4G5vx5dv1s-69" value="" style="endArrow=none;html=1;rounded=0;exitX=1;exitY=1;exitDx=0;exitDy=0;entryX=0.001;entryY=0.378;entryDx=0;entryDy=0;entryPerimeter=0;" parent="1" source="4UDEAUrDCL4G5vx5dv1s-36" target="4UDEAUrDCL4G5vx5dv1s-67" edge="1">
          <mxGeometry width="50" height="50" relative="1" as="geometry">
            <mxPoint x="770" y="765" as="sourcePoint" />
            <mxPoint x="860" y="660" as="targetPoint" />
          </mxGeometry>
        </mxCell>
        <mxCell id="4UDEAUrDCL4G5vx5dv1s-70" value="x" style="whiteSpace=wrap;html=1;rounded=0;shadow=0;labelBackgroundColor=none;strokeWidth=1;fillColor=none;fontFamily=Verdana;fontSize=12;align=center;comic=1;" parent="1" vertex="1">
          <mxGeometry x="1000" y="740" width="30" height="30" as="geometry" />
        </mxCell>
        <mxCell id="4UDEAUrDCL4G5vx5dv1s-71" value="Visible Score" style="text;html=1;strokeColor=none;fillColor=none;align=center;verticalAlign=middle;whiteSpace=wrap;rounded=0;" parent="1" vertex="1">
          <mxGeometry x="860" y="770" width="110" height="30" as="geometry" />
        </mxCell>
        <mxCell id="4UDEAUrDCL4G5vx5dv1s-72" value="x" style="whiteSpace=wrap;html=1;rounded=0;shadow=0;labelBackgroundColor=none;strokeWidth=1;fillColor=none;fontFamily=Verdana;fontSize=12;align=center;comic=1;" parent="1" vertex="1">
          <mxGeometry x="1000" y="770" width="30" height="30" as="geometry" />
        </mxCell>
        <mxCell id="4UDEAUrDCL4G5vx5dv1s-73" value="Highscore" style="text;html=1;strokeColor=none;fillColor=none;align=center;verticalAlign=middle;whiteSpace=wrap;rounded=0;" parent="1" vertex="1">
          <mxGeometry x="860" y="800" width="110" height="30" as="geometry" />
        </mxCell>
        <mxCell id="4UDEAUrDCL4G5vx5dv1s-74" value="x" style="whiteSpace=wrap;html=1;rounded=0;shadow=0;labelBackgroundColor=none;strokeWidth=1;fillColor=none;fontFamily=Verdana;fontSize=12;align=center;comic=1;" parent="1" vertex="1">
          <mxGeometry x="1000" y="800" width="30" height="30" as="geometry" />
        </mxCell>
        <mxCell id="4UDEAUrDCL4G5vx5dv1s-75" value="Sound reward" style="text;html=1;strokeColor=none;fillColor=none;align=center;verticalAlign=middle;whiteSpace=wrap;rounded=0;" parent="1" vertex="1">
          <mxGeometry x="860" y="830" width="110" height="30" as="geometry" />
        </mxCell>
        <mxCell id="4UDEAUrDCL4G5vx5dv1s-76" value="x" style="whiteSpace=wrap;html=1;rounded=0;shadow=0;labelBackgroundColor=none;strokeWidth=1;fillColor=none;fontFamily=Verdana;fontSize=12;align=center;comic=1;" parent="1" vertex="1">
          <mxGeometry x="1000" y="830" width="30" height="30" as="geometry" />
        </mxCell>
        <mxCell id="4UDEAUrDCL4G5vx5dv1s-77" value="Coin rewards" style="text;html=1;strokeColor=none;fillColor=none;align=center;verticalAlign=middle;whiteSpace=wrap;rounded=0;" parent="1" vertex="1">
          <mxGeometry x="860" y="860" width="110" height="30" as="geometry" />
        </mxCell>
        <mxCell id="4UDEAUrDCL4G5vx5dv1s-78" value="x" style="whiteSpace=wrap;html=1;rounded=0;shadow=0;labelBackgroundColor=none;strokeWidth=1;fillColor=none;fontFamily=Verdana;fontSize=12;align=center;comic=1;" parent="1" vertex="1">
          <mxGeometry x="1000" y="860" width="30" height="30" as="geometry" />
        </mxCell>
      </root>
    </mxGraphModel>
  </diagram>
</mxfile>
